<svg width="453" height="499" viewBox="0 0 453 499" fill="none" xmlns="http://www.w3.org/2000/svg">
<g opacity="0.38" clip-path="url(#clip0_1496_1790)">
<path d="M202.657 0.0034015C185.743 0.0822085 169.59 1.52869 155.377 4.0505C113.508 11.4676 105.907 26.9922 105.907 55.6222V93.4336H204.848V106.037H105.907H68.7747C40.0196 106.037 14.8408 123.368 6.96523 156.337C-2.11918 194.127 -2.52212 217.709 6.96523 257.168C13.9983 286.54 30.7943 307.468 59.5494 307.468H93.5677V262.14C93.5677 229.394 121.823 200.508 155.377 200.508H254.203C281.713 200.508 303.674 177.796 303.674 150.093V55.6222C303.674 28.7352 281.053 8.53783 254.203 4.0505C237.206 1.21346 219.571 -0.0754066 202.657 0.0034015ZM149.15 30.4145C159.37 30.4145 167.716 38.92 167.716 49.378C167.716 59.7991 159.37 68.226 149.15 68.226C138.893 68.226 130.584 59.7991 130.584 49.378C130.584 38.92 138.893 30.4145 149.15 30.4145Z" fill="#7C7C7C"/>
<path d="M316.013 106.037V150.092C316.013 184.248 287.134 212.996 254.203 212.996H155.377C128.307 212.996 105.907 236.228 105.907 263.411V357.882C105.907 384.769 129.223 400.584 155.377 408.298C186.697 417.532 216.73 419.201 254.203 408.298C279.112 401.066 303.674 386.512 303.674 357.882V320.071H204.848V307.467H303.674H353.145C381.9 307.467 392.615 287.355 402.615 257.167C412.945 226.09 412.506 196.203 402.615 156.337C395.509 127.632 381.936 106.037 353.145 106.037H316.013ZM260.43 345.278C270.687 345.278 278.996 353.705 278.996 364.126C278.996 374.584 270.687 383.09 260.43 383.09C250.21 383.09 241.864 374.584 241.864 364.126C241.865 353.705 250.21 345.278 260.43 345.278Z" fill="#646464"/>
<path opacity="0.44382" d="M205.97 498.3C279.198 498.3 338.56 486.757 338.56 472.519C338.56 458.281 279.198 446.739 205.97 446.739C132.743 446.739 73.3809 458.281 73.3809 472.519C73.3809 486.757 132.743 498.3 205.97 498.3Z" fill="url(#paint0_radial_1496_1790)"/>
</g>
<defs>
<radialGradient id="paint0_radial_1496_1790" cx="0" cy="0" r="1" gradientUnits="userSpaceOnUse" gradientTransform="translate(205.97 472.519) rotate(-90) scale(25.7805 113.007)">
<stop stop-color="#B8B8B8" stop-opacity="0.498039"/>
<stop offset="1" stop-color="#7F7F7F" stop-opacity="0"/>
</radialGradient>
<clipPath id="clip0_1496_1790">
<rect width="453" height="498.3" fill="white"/>
</clipPath>
</defs>
</svg>
