<svg width="31" height="31" viewBox="0 0 31 31" fill="none" xmlns="http://www.w3.org/2000/svg">
<path d="M11.6235 11.556C11.6235 9.76123 10.4027 9.76123 10.4027 9.76123H5.3894V13.609H10.0919C10.9041 13.609 11.6235 13.3483 11.6235 11.556ZM10.4027 16.2685H5.3894V20.8758H10.1771C10.8966 20.8558 12.2276 20.6251 12.2276 18.6348C12.2201 16.2535 10.4027 16.2685 10.4027 16.2685ZM23.2544 13.609C20.5899 13.609 20.2189 16.266 20.2189 16.266H25.8839C25.8839 16.266 25.919 13.609 23.2544 13.609Z" fill="#FBFBFB"/>
<path d="M27.3453 0H3.65723C2.68727 0 1.75704 0.385314 1.07118 1.07118C0.385314 1.75704 0 2.68727 0 3.65723V27.3428C0 28.3127 0.385314 29.243 1.07118 29.9288C1.75704 30.6147 2.68727 31 3.65723 31H27.3428C28.3127 31 29.243 30.6147 29.9288 29.9288C30.6147 29.243 31 28.3127 31 27.3428V3.65723C31 2.68771 30.615 1.75786 29.9297 1.07206C29.2444 0.386272 28.3148 0.000664513 27.3453 0ZM19.4768 7.71052H26.5908V9.83618H19.4768V7.71052ZM15.8798 18.8502C15.8798 24.1142 10.4027 23.9412 10.4027 23.9412H1.4288V6.69532H10.4027C13.1299 6.69532 15.2832 8.19932 15.2832 11.2875C15.2832 14.3758 12.6512 14.5688 12.6512 14.5688C16.1204 14.5688 15.8798 18.8502 15.8798 18.8502ZM29.1877 18.5694H20.2639C20.2639 21.7729 23.2995 21.5774 23.2995 21.5774C26.1646 21.5774 26.0568 19.7225 26.0568 19.7225H29.0874C29.0874 24.6456 23.1867 24.3072 23.1867 24.3072C16.1054 24.3072 16.5616 17.7146 16.5616 17.7146C16.5616 17.7146 16.5616 11.0895 23.1867 11.0895C30.1678 11.0845 29.1902 18.5694 29.1902 18.5694H29.1877Z" fill="#FBFBFB"/>
</svg>
