<svg width="27" height="27" viewBox="0 0 27 27" fill="none" xmlns="http://www.w3.org/2000/svg">
<path d="M2.89158 12.0383C2.14739 11.7489 1.7753 11.6042 1.66667 11.3957C1.57249 11.215 1.57237 10.9997 1.66633 10.8188C1.77471 10.6102 2.14664 10.465 2.89048 10.1747L24.0002 1.93682C24.6717 1.67478 25.0074 1.54376 25.222 1.61543C25.4083 1.67767 25.5545 1.82388 25.6167 2.01019C25.6884 2.22473 25.5574 2.56046 25.2954 3.23194L17.0574 24.3416C16.7671 25.0855 16.622 25.4574 16.4134 25.5658C16.2325 25.6597 16.0172 25.6596 15.8364 25.5654C15.6279 25.4568 15.4832 25.0847 15.1938 24.3405L11.9087 15.893C11.8499 15.742 11.8205 15.6664 11.7752 15.6028C11.735 15.5465 11.6857 15.4972 11.6293 15.457C11.5657 15.4116 11.4902 15.3822 11.3391 15.3235L2.89158 12.0383Z" fill="#5F606E"/>
<path d="M11.7492 15.4829L24.8742 2.35794M11.9087 15.893L15.1938 24.3405C15.4832 25.0847 15.6279 25.4568 15.8364 25.5654C16.0172 25.6596 16.2325 25.6597 16.4134 25.5658C16.622 25.4574 16.7671 25.0855 17.0574 24.3416L25.2954 3.23194C25.5574 2.56046 25.6884 2.22473 25.6167 2.01019C25.5545 1.82388 25.4083 1.67767 25.222 1.61543C25.0074 1.54376 24.6717 1.67478 24.0002 1.93682L2.89048 10.1747C2.14664 10.465 1.77471 10.6102 1.66633 10.8188C1.57237 10.9997 1.57249 11.215 1.66667 11.3957C1.7753 11.6042 2.14739 11.7489 2.89158 12.0383L11.3391 15.3235C11.4902 15.3822 11.5657 15.4116 11.6293 15.457C11.6857 15.4972 11.735 15.5465 11.7752 15.6028C11.8205 15.6664 11.8499 15.742 11.9087 15.893Z" stroke="#5F606E" stroke-width="2.5" stroke-linecap="round" stroke-linejoin="round"/>
</svg>
