<svg width="329" height="498" viewBox="0 0 329 498" fill="none" xmlns="http://www.w3.org/2000/svg">
<g opacity="0.38" clip-path="url(#clip0_1496_1462)">
<path d="M82.2668 498C127.66 498 164.5 460.816 164.5 415V332H82.2668C36.8738 332 0.0332031 369.184 0.0332031 415C0.0332031 460.816 36.8738 498 82.2668 498Z" fill="#777777"/>
<path d="M0.0332031 249C0.0332031 203.184 36.8738 166 82.2668 166H164.5V332H82.2668C36.8738 332 0.0332031 294.816 0.0332031 249Z" fill="#595959"/>
<path d="M0.0317383 83C0.0317383 37.184 36.8724 0 82.2653 0H164.499V166H82.2653C36.8724 166 0.0317383 128.816 0.0317383 83Z" fill="#6A6A6A"/>
<path d="M164.5 0H246.734C292.126 0 328.967 37.184 328.967 83C328.967 128.816 292.126 166 246.734 166H164.5V0Z" fill="#7C7C7C"/>
<path d="M328.967 249C328.967 294.816 292.126 332 246.734 332C201.341 332 164.5 294.816 164.5 249C164.5 203.184 201.341 166 246.734 166C292.126 166 328.967 203.184 328.967 249Z" fill="#B1B1B1"/>
</g>
<defs>
<clipPath id="clip0_1496_1462">
<rect width="329" height="498" fill="white"/>
</clipPath>
</defs>
</svg>
