<svg width="332" height="428" viewBox="0 0 332 428" fill="none" xmlns="http://www.w3.org/2000/svg">
<path d="M139.845 193.366L223.5 128.143V223.508L137.956 288.271L48 223.464V82V80.4723L46.7645 79.5738L8.26452 51.5738L3.5 48.1087V54V242.5V244.053L4.76776 244.949L136.268 337.949L138.074 339.227L139.828 337.879L260.828 244.879L262 243.978V242.5V54V47.8505L257.153 51.6356L137.905 144.768L74.2242 100.045L69.5 96.7272V102.5V142V143.502L70.7029 144.402L136.203 193.402L138.038 194.775L139.845 193.366Z" fill="white" stroke="#1B1B1B" stroke-width="6"/>
<path d="M283.739 38.5712L282.5 39.4695V41V258.023L137.936 369.264L9.24725 277.061L4.5 273.66V279.5V326V327.536L5.74659 328.434L136.247 422.434L138.07 423.748L139.843 422.367L327.343 276.367L328.5 275.466V274V12V6.11951L323.739 9.57117L283.739 38.5712Z" fill="white" stroke="#1B1B1B" stroke-width="6"/>
</svg>
