<svg width="68" height="103" viewBox="0 0 68 103" fill="none" xmlns="http://www.w3.org/2000/svg">
<g clip-path="url(#clip0_1496_2458)">
<path d="M17.0034 103C26.3856 103 34 95.3094 34 85.8334V68.6667H17.0034C7.62131 68.6667 0.00683594 76.3574 0.00683594 85.8334C0.00683594 95.3094 7.62131 103 17.0034 103Z" fill="#0ACF83"/>
<path d="M0.00683594 51.4999C0.00683594 42.0239 7.62131 34.3333 17.0034 34.3333H34V68.6666H17.0034C7.62131 68.6666 0.00683594 60.9759 0.00683594 51.4999Z" fill="#A259FF"/>
<path d="M0.00646973 17.1667C0.00646973 7.69067 7.62095 0 17.0031 0H33.9997V34.3333H17.0031C7.62095 34.3333 0.00646973 26.6427 0.00646973 17.1667Z" fill="#F24E1E"/>
<path d="M34 0H50.9966C60.3787 0 67.9932 7.69067 67.9932 17.1667C67.9932 26.6427 60.3787 34.3333 50.9966 34.3333H34V0Z" fill="#FF7262"/>
<path d="M67.9932 51.4999C67.9932 60.9759 60.3787 68.6666 50.9966 68.6666C41.6145 68.6666 34 60.9759 34 51.4999C34 42.0239 41.6145 34.3333 50.9966 34.3333C60.3787 34.3333 67.9932 42.0239 67.9932 51.4999Z" fill="#1ABCFE"/>
</g>
<defs>
<clipPath id="clip0_1496_2458">
<rect width="68" height="103" fill="white"/>
</clipPath>
</defs>
</svg>
