<svg width="447" height="447" viewBox="0 0 447 447" fill="none" xmlns="http://www.w3.org/2000/svg">
<g opacity="0.38">
<path d="M94.6382 0H114.718V19.9055H133.227V0H153.307V60.2402H133.227V40.1602H114.893V60.2402H94.6382M179.848 20.0801H162.125V0H217.738V20.0801H199.928V60.2402H179.848M226.556 0H247.596L260.517 21.215L273.438 0H294.479V60.2402H274.399V30.382L260.342 52.0336L246.286 30.382V60.2402H226.556M304.431 0H324.511V40.3348H352.973V60.2402H304.431" fill="#848484"/>
<path d="M93.9399 411.205L65.1294 87.8286H381.871L353.06 411.031L223.238 447" fill="#5B5B5B"/>
<path d="M223.5 419.499V114.369H352.973L328.266 390.252" fill="#727272"/>
<path d="M123.973 153.918H223.5V193.555H167.45L171.117 234.151H223.5V273.7H134.798M136.545 293.606H176.355L179.149 325.297L223.5 337.171V378.553L142.132 355.854" fill="#7C7C7C"/>
<path d="M322.678 153.918H223.325V193.555H319.011M315.432 234.151H223.325V273.788H272.216L267.589 325.297L223.325 337.171V378.379L304.519 355.854" fill="#929292"/>
</g>
</svg>
