<svg width="35" height="34" viewBox="0 0 35 34" fill="none" xmlns="http://www.w3.org/2000/svg">
<path d="M17.2836 0C15.0139 0 12.7664 0.447054 10.6695 1.31564C8.57251 2.18422 6.66718 3.45732 5.06225 5.06225C1.82095 8.30355 0 12.6997 0 17.2836C0 24.923 4.96039 31.4043 11.822 33.703C12.6862 33.8413 12.9627 33.3055 12.9627 32.8388V29.9179C8.17514 30.9549 7.15541 27.6019 7.15541 27.6019C6.36036 25.597 5.23693 25.0612 5.23693 25.0612C3.66412 23.9896 5.35792 24.0242 5.35792 24.0242C7.08628 24.1452 8.00231 25.8044 8.00231 25.8044C9.50598 28.4315 12.0467 27.6538 13.0318 27.239C13.1874 26.1155 13.6368 25.355 14.1207 24.923C10.2837 24.4909 6.25666 23.0045 6.25666 16.4194C6.25666 14.5009 6.91344 12.9627 8.03687 11.7356C7.86404 11.3035 7.25911 9.50598 8.20971 7.17269C8.20971 7.17269 9.66153 6.70604 12.9627 8.93562C14.3281 8.55538 15.8145 8.36526 17.2836 8.36526C18.7527 8.36526 20.2391 8.55538 21.6045 8.93562C24.9057 6.70604 26.3575 7.17269 26.3575 7.17269C27.3081 9.50598 26.7032 11.3035 26.5303 11.7356C27.6538 12.9627 28.3105 14.5009 28.3105 16.4194C28.3105 23.0218 24.2662 24.4736 20.4119 24.9057C21.0341 25.4415 21.6045 26.4958 21.6045 28.1031V32.8388C21.6045 33.3055 21.881 33.8586 22.7625 33.703C29.6241 31.387 34.5672 24.923 34.5672 17.2836C34.5672 15.0139 34.1201 12.7664 33.2516 10.6695C32.383 8.57251 31.1099 6.66718 29.5049 5.06225C27.9 3.45732 25.9947 2.18422 23.8977 1.31564C21.8008 0.447054 19.5533 0 17.2836 0Z" fill="white"/>
</svg>
