<svg width="348" height="310" viewBox="0 0 348 310" fill="none" xmlns="http://www.w3.org/2000/svg">
<path d="M157.325 248.167C156.522 233.517 158.208 218.578 158.059 203.839C158.586 198.731 157.732 193.525 155.558 188.722C155.422 188.425 155.278 188.119 155.01 187.89C154.178 187.181 152.751 187.558 151.647 187.936C141.048 191.546 128.526 190.697 118.861 185.597C116.95 188 116.403 190.947 115.931 193.796C115.171 198.399 114.335 202.998 114.131 207.623L114.127 207.648C114.084 208.642 114.059 209.635 114.08 210.633C114.212 216.4 115.558 222.081 116.611 227.763C117.299 231.47 117.902 235.203 117.957 238.956C118.004 242.031 117.481 244.842 118.314 247.848C120.364 255.258 120.369 263.335 121.235 270.906C122.165 279.016 123.078 287.123 123.838 295.246C123.868 295.569 123.897 295.891 123.927 296.214C124.424 296.325 131.978 297.76 131.978 296.142C132.585 280.379 133.188 264.617 133.796 248.855C134.05 242.222 133.469 219.814 135.507 213.495C136.344 213.563 137.184 213.635 138.021 213.703C142.628 234.561 148.089 271.097 152.696 291.959C153.104 293.798 153.592 295.777 155.057 296.961C156.522 298.146 159.257 297.815 159.69 295.985C158.352 280.044 158.195 264.112 157.325 248.167Z" fill="#343540"/>
<path d="M143.847 107.307C143.847 102.368 139.12 98.3599 133.294 98.3599C127.464 98.3599 122.742 102.364 122.742 107.307C122.742 108.131 122.887 108.929 123.133 109.685C123.141 109.88 123.146 110.08 123.141 110.284C123.112 112.067 123.201 113.859 123.583 115.617C124.326 119.04 126.271 122.22 129.944 124.165C131.167 124.815 132.572 125.307 134.037 125.299C136.004 125.286 137.812 124.365 139.176 123.218C143.689 119.439 144.08 113.757 143.762 108.394C143.813 108.042 143.847 107.681 143.847 107.307Z" fill="#D0C5C2"/>
<path d="M132.288 296.287C129.966 296.121 127.617 296.21 125.32 296.546C123.549 297.718 121.605 298.686 119.558 299.42C118.963 299.633 118.335 299.841 117.897 300.257C117.46 300.673 117.282 301.369 117.689 301.807C118.046 302.189 118.683 302.231 119.244 302.236C123.537 302.274 127.838 301.951 132.063 301.268C132.318 301.225 132.586 301.178 132.768 301.017C132.913 300.89 132.985 300.707 133.036 300.529C133.465 299.11 133.189 297.527 132.288 296.287Z" fill="#3D322B"/>
<path d="M159.308 296.592C157.214 296.618 155.129 296.872 153.117 297.352C151.673 298.537 150.051 299.552 148.306 300.363C147.8 300.601 147.265 300.83 146.921 301.238C146.577 301.641 146.501 302.282 146.917 302.643C147.282 302.957 147.851 302.949 148.357 302.911C152.195 302.622 155.996 302.006 159.686 301.076C159.907 301.021 160.14 300.957 160.285 300.796C160.399 300.669 160.442 300.503 160.467 300.342C160.692 299.034 160.259 297.637 159.308 296.592Z" fill="#3D322B"/>
<path d="M158.488 197.504C158.454 187.414 158.416 177.329 158.382 167.24C158.352 158.739 156.416 149.719 155.155 141.324C154.462 136.704 153.643 135.099 151.545 130.98C151.248 130.394 151.197 129.999 148.42 129.103C147.817 128.908 146.386 128.097 145.647 128.22C142.021 128.832 138.335 127.46 134.708 128.072C130.874 128.721 124.441 126.781 121.451 129.401C117.413 132.946 117.133 141.363 116.487 146.87C115.621 154.301 113.566 161.834 113.201 169.308C112.882 175.868 112.708 182.433 112.589 189.002C112.525 192.425 111.277 204.327 114.351 206.621C116.152 207.958 120.963 208.506 125.918 208.671C126.097 208.676 126.275 208.684 126.453 208.688C126.5 208.688 126.547 208.693 126.598 208.693C128.615 208.748 130.632 208.739 132.458 208.701C135.154 208.642 137.439 208.514 138.674 208.4C144.454 207.873 150.161 206.697 155.821 205.393C156.828 205.164 157.936 204.854 158.488 203.933C158.883 203.274 158.492 198.285 158.488 197.504Z" fill="#D3E4EA"/>
<path d="M146.48 108.611C146.369 107.171 146.132 105.778 145.766 104.385C145.766 104.377 145.762 104.373 145.758 104.364C145.52 102.946 145.291 101.523 145.062 100.105C144.998 99.7144 144.769 99.3662 144.357 99.2898C142.777 98.9883 141.197 98.759 139.605 98.5849C138.535 98.0201 137.176 97.7526 135.983 97.8673C135.129 97.7526 134.246 97.7866 133.507 97.8843C133.061 97.9437 132.573 98.0371 132.106 98.1857C131.282 98.173 130.458 98.207 129.635 98.2876C127.868 96.6316 123.779 97.1114 122.569 99.1454C122.322 99.5616 122.191 99.9522 122.153 100.326C120.547 100.725 118.985 101.689 118.501 103.341C118.263 104.156 118.365 105.044 118.87 105.736C119.155 106.126 119.575 106.334 120 106.526C120.165 106.738 120.365 106.937 120.586 107.12C120.768 107.434 121.04 107.71 121.431 107.923C121.592 108.012 121.749 108.042 121.893 108.029C122.004 108.097 122.11 108.16 122.208 108.22C122.921 108.657 123.601 107.838 123.443 107.163C123.533 106.967 123.562 106.742 123.511 106.53C123.813 106.173 124.093 105.765 124.378 105.46C124.709 105.298 125.036 105.12 125.392 104.967C125.426 104.95 125.46 104.942 125.499 104.925C125.554 104.908 125.601 104.891 125.647 104.865C126.174 104.683 126.675 104.649 127.167 104.704C127.214 104.717 127.265 104.734 127.312 104.746C127.707 104.865 128.11 104.967 128.514 105.061C128.764 105.154 129.01 105.26 129.265 105.371C129.52 105.481 129.787 105.451 130.017 105.337C132.39 105.702 134.866 105.715 137.278 105.579C138.378 106.551 140.374 106.305 141.473 105.375C141.482 105.371 141.486 105.362 141.49 105.358C141.52 105.77 141.427 106.207 141.185 106.606C141.04 106.844 141.049 107.264 141.227 107.481C141.72 108.075 141.945 108.734 141.907 109.502C141.877 110.118 142.565 110.402 143.062 110.292C143.219 110.258 143.202 110.772 143.142 111.303C143.083 111.167 142.943 111.069 142.747 111.129C141.648 111.46 140.548 111.804 139.435 112.11C139.325 111.744 139.095 111.443 138.675 111.277C138.072 111.039 137.287 111.129 136.658 111.133C135.363 111.137 134.064 111.154 132.768 111.133C132.599 111.129 132.492 111.218 132.45 111.332C132.267 111.337 132.08 111.332 131.898 111.341C131.69 111.345 131.52 111.49 131.516 111.672C131.511 112.114 131.507 112.555 131.528 113.001C131.291 112.984 131.053 112.967 130.828 112.963C130.318 112.95 129.813 112.946 129.303 112.955C129.291 112.704 129.269 112.458 129.252 112.237C129.265 112.033 129.291 111.834 129.295 111.63C129.299 111.447 129.125 111.294 128.925 111.294H128.841C128.819 111.29 128.798 111.281 128.773 111.281C127.609 111.226 126.45 111.158 125.286 111.095C124.475 111.052 123.392 110.797 122.628 111.056C121.528 111.43 121.69 112.729 121.826 113.787C121.724 114.245 121.702 114.687 121.932 114.959C122.114 115.175 122.386 115.205 122.649 115.248C123.507 115.396 124.526 115.265 125.401 115.269C126.254 115.273 128.119 115.647 128.832 115.048C129.159 114.772 129.278 114.254 129.312 113.693C129.329 113.693 129.346 113.698 129.363 113.698C129.38 113.808 129.456 113.906 129.609 113.931C130.272 114.054 130.938 114.093 131.609 114.059C131.762 114.581 132.136 115.031 132.824 115.269C133.732 115.587 134.964 115.341 135.932 115.383C136.48 115.409 136.998 115.392 137.456 115.222C137.847 115.175 138.242 115.124 138.633 115.052C138.73 115.035 138.807 114.967 138.853 114.887C138.968 114.865 139.074 114.793 139.112 114.67C139.278 114.165 139.52 113.405 139.52 112.717C140.654 112.369 141.8 112.054 142.938 111.74C143.015 111.719 143.066 111.681 143.104 111.634C143.053 111.995 142.998 112.301 142.977 112.373C142.764 113.192 142.395 113.893 141.941 114.598C141.758 114.887 141.839 115.451 142.132 115.655C142.34 115.8 142.539 115.906 142.726 115.986C142.454 117.248 141.809 118.449 141.138 119.6C140.395 120.874 138.514 121.999 137.359 123.006C136.208 124.012 134.633 124.73 133.019 124.624C132.807 124.611 132.594 124.581 132.407 124.488C132.013 124.292 131.855 123.863 131.737 123.477C131.622 123.091 131.482 122.662 131.104 122.441C130.726 122.22 130.059 122.424 130.106 122.823C130.136 123.082 130.441 123.273 130.446 123.532C130.45 123.829 130.025 124.012 129.703 123.927C129.38 123.846 129.15 123.6 128.938 123.367C128.433 122.806 127.932 122.246 127.426 121.685C127.214 121.447 126.972 121.252 126.662 121.384C127.07 122.267 127.898 123.112 128.492 123.914C128.981 124.573 129.49 125.248 130.225 125.694C131.104 126.224 132.204 126.369 133.265 126.386C134.556 126.407 135.915 126.246 136.955 125.566C137.698 125.078 139.524 123.609 139.991 122.9C141.558 120.522 142.556 118.878 143.389 116.22C143.397 116.19 143.405 116.161 143.414 116.131C144.781 116.161 145.601 114.462 145.945 113.014C146.225 111.825 146.352 110.534 146.119 109.379C146.352 109.243 146.505 108.984 146.48 108.611ZM128.314 113.927C128.293 113.982 128.263 114.037 128.229 114.088C127.125 114.211 125.974 114.352 124.874 114.296C124.327 114.271 123.898 114.165 123.592 113.931C123.592 113.927 123.596 113.923 123.596 113.914C123.601 113.265 123.609 112.619 123.613 111.969C124.339 111.965 125.07 111.965 125.796 111.961C126.654 111.986 127.516 112.012 128.373 112.042C128.407 112.36 128.45 112.729 128.446 113.082C128.416 113.366 128.365 113.647 128.314 113.927ZM138.106 113.269C137.957 113.88 137.762 114.322 137.193 114.572C136.221 114.683 135.24 114.713 134.259 114.632C133.444 114.564 133.163 114.564 133.091 113.804C133.078 113.676 133.074 113.545 133.07 113.413C133.117 113.315 133.112 113.201 133.066 113.103C133.066 112.78 133.083 112.453 133.104 112.131C134.7 112.127 136.293 112.139 137.889 112.148C138.004 112.224 138.085 112.322 138.127 112.432C138.132 112.666 138.132 112.899 138.136 113.133C138.123 113.175 138.119 113.218 138.106 113.269Z" fill="#333333"/>
<path d="M160.085 177.881C160 172.811 159.821 167.745 159.545 162.683C159.184 156.072 158.968 149.278 157.872 142.743C157.184 138.619 155.757 134.246 152.28 131.821C151.413 129.855 150.157 128.186 148.25 127.26C147.664 126.305 146.53 126.182 145.634 126.628C144.925 126.224 143.987 126.173 143.218 126.832C140.131 129.477 138.407 133.171 137.328 137.023C136.156 141.205 135.468 145.719 135.282 150.055C134.98 157.019 137.171 163.966 141.188 169.626C141.226 170.442 141.256 171.253 141.277 172.068C141.66 187.151 137.222 201.669 132.806 215.92C132.309 217.521 134.152 218.833 135.57 218.391C136.093 218.23 136.619 218.081 137.141 217.929C137.333 217.988 137.532 218.03 137.753 218.047C138.186 218.073 138.619 218.094 139.052 218.107C139.783 218.604 140.751 218.689 141.456 218.103C145.018 217.988 148.547 217.393 151.944 216.328L154.819 215.979C155.142 215.941 155.464 215.835 155.753 215.674C156.772 215.805 157.91 215.279 158.208 214.052C161.133 202.039 161.384 189.924 160.085 177.881Z" fill="#F7E188"/>
<path d="M122.989 127.252C117.817 133.719 115.193 141.448 113.889 149.465C110.624 162.272 110.39 175.911 110.934 189.206C110.925 189.291 110.921 189.38 110.925 189.474L111.295 200.378C111.409 203.737 111.291 207.215 112.008 210.514C113.104 215.538 118.475 220.353 123.626 217.092C124.399 216.604 124.637 215.695 124.425 214.85C119.049 193.419 118.123 170.913 121.72 149.112C122.734 142.959 124.115 136.874 125.822 130.878C125.932 130.492 125.923 130.152 125.839 129.859C127.384 127.923 124.543 125.311 122.989 127.252Z" fill="#F7E188"/>
<path d="M122.237 144.704C121.18 142.976 119.94 141.418 118.695 139.83C117.587 138.411 117.468 136.484 115.952 135.367C114.462 134.271 112.538 134.263 110.772 134.424C110.441 134.454 110.143 134.573 109.893 134.747C109.723 134.827 109.57 134.934 109.434 135.061C108.899 135.18 108.356 135.358 107.808 135.579C106.708 136.021 106.385 137.103 106.899 138.127C109.294 142.887 111.787 147.63 115.63 151.397C116.139 151.898 116.81 151.927 117.375 151.69C117.693 151.809 118.042 151.881 118.436 151.881C119.434 151.881 120.466 151.69 121.451 151.528C122.466 151.358 123.405 151.172 123.927 150.182C124.857 148.428 123.116 146.148 122.237 144.704Z" fill="#909294"/>
<path d="M125.014 148.301C121.927 143.838 118.878 139.346 115.813 134.866C115.409 134.275 114.73 134.288 114.271 134.598C112.662 134.526 111.052 134.509 109.443 134.568C108.573 134.602 107.621 134.573 107.18 135.439C107.048 135.698 107.256 135.97 107.528 135.974C109.558 136.004 111.587 136.025 113.617 136.055C113.706 136.212 113.893 136.233 114.046 136.165C117.086 140.607 120.144 145.04 123.163 149.499C123.957 150.671 125.821 149.469 125.014 148.301Z" fill="#606060"/>
<path d="M141.829 164.166C139.426 162.522 136.955 160.968 134.42 159.537C132.551 157.512 130.386 155.766 127.974 154.352C127.196 153.898 126.479 154.055 125.974 154.497C125.855 154.514 125.74 154.544 125.625 154.582C125.247 154.331 124.869 154.136 124.517 154.034C124.517 154.034 124.513 154.034 124.513 154.038C124.275 154.153 124.046 154.272 123.825 154.408C123.795 154.429 123.642 154.531 123.528 154.607C123.413 154.701 123.188 154.879 123.188 154.879C123.086 154.964 122.988 155.053 122.886 155.142C122.857 156.051 123.388 157.304 123.948 158.319L125.443 161.04C125.498 161.159 125.557 161.278 125.634 161.397C125.655 161.431 125.676 161.465 125.698 161.499L128.075 165.83C128.233 165.89 128.394 165.966 128.555 166.064C129.069 166.845 129.596 167.614 130.152 168.357C130.993 170.782 132.874 172.777 135.256 174.136C138.296 175.869 143.838 178.383 146.076 174.276C148.254 170.276 144.967 166.31 141.829 164.166Z" fill="#F7E188"/>
<path d="M151.813 137.69C151.359 136.819 150.255 136.488 149.38 136.789C148.688 136.768 147.936 136.908 147.121 137.269C142.454 139.329 141.393 145.218 140.399 149.639C138.989 155.906 138.064 162.352 139.057 168.752C139.172 169.495 139.614 169.975 140.157 170.208C140.119 170.917 140.11 171.631 140.127 172.348C140.153 173.525 141.002 174.047 141.898 174.017C142.238 174.174 142.548 174.246 142.837 174.255C143.206 174.561 143.682 174.726 144.221 174.663C150.004 173.966 149.584 166.51 150.505 162.238C151.113 159.427 151.962 156.717 152.981 154.03C153.941 151.511 154.93 148.934 155.083 146.216C155.232 143.49 154.128 139.469 151.813 137.69Z" fill="#F7E188"/>
<path d="M123.048 155.651C123.226 155.609 123.405 155.549 123.579 155.456C124.364 155.036 124.687 154.225 124.831 153.392C125.04 152.186 124.916 150.946 124.836 149.723C124.343 148.929 123.77 148.207 122.963 147.702C122.819 147.876 122.674 148.05 122.53 148.229L122.959 149.337C122.275 148.585 121.481 147.923 120.615 147.384C119.774 146.857 118.615 146.471 117.991 147.061C117.375 147.647 117.744 148.738 118.207 149.571C119.456 151.817 121.167 153.8 123.048 155.651Z" fill="#D0C5C2"/>
<mask id="mask0_805_1126" style="mask-type:luminance" maskUnits="userSpaceOnUse" x="43" y="30" width="187" height="167">
<path d="M136.607 196.158C187.854 196.158 229.398 159.083 229.398 113.349C229.398 67.6158 187.854 30.5414 136.607 30.5414C85.3595 30.5414 43.8154 67.6158 43.8154 113.349C43.8154 159.083 85.3595 196.158 136.607 196.158Z" fill="white"/>
</mask>
<g mask="url(#mask0_805_1126)">
<path d="M166.679 254.604C165.563 234.209 167.907 213.402 167.703 192.879C168.437 185.767 167.248 178.518 164.221 171.83C164.034 171.414 163.83 170.989 163.456 170.671C162.297 169.686 160.314 170.208 158.773 170.734C144.012 175.762 126.577 174.577 113.12 167.478C110.462 170.824 109.698 174.93 109.044 178.896C107.982 185.308 106.823 191.707 106.538 198.149C106.538 198.162 106.534 198.174 106.534 198.174V198.187C106.475 199.571 106.441 200.956 106.47 202.34C106.657 210.37 108.53 218.277 109.995 226.192C110.95 231.355 111.791 236.553 111.872 241.78C111.935 246.061 111.209 249.971 112.369 254.163C115.222 264.481 115.231 275.726 116.437 286.269C117.727 297.56 119.006 308.851 120.059 320.159C120.101 320.609 120.144 321.06 120.182 321.51C120.87 321.663 131.397 323.663 131.397 321.412C132.242 299.463 133.082 277.517 133.927 255.568C134.284 246.332 133.473 215.13 136.31 206.332C137.477 206.429 138.645 206.523 139.813 206.62C146.229 235.665 153.834 286.541 160.25 315.582C160.815 318.138 161.499 320.898 163.541 322.546C165.58 324.193 169.389 323.731 169.992 321.183C168.11 298.996 167.894 276.808 166.679 254.604Z" fill="#537082"/>
<path d="M147.915 58.4738C147.915 51.5948 141.337 46.0193 133.218 46.0193C125.103 46.0193 118.521 51.5948 118.521 58.4738C118.521 59.6204 118.721 60.7287 119.065 61.786C119.078 62.0578 119.086 62.3338 119.078 62.6225C119.035 65.1024 119.158 67.6035 119.693 70.0494C120.73 74.8138 123.435 79.2427 128.551 81.9519C130.254 82.8564 132.212 83.5401 134.25 83.5273C136.989 83.5103 139.503 82.2237 141.409 80.6313C147.698 75.3658 148.242 67.4549 147.796 59.9898C147.868 59.493 147.915 58.9877 147.915 58.4738Z" fill="#D0C5C2"/>
<path d="M168.302 184.064C168.251 170.017 168.2 155.97 168.153 141.923C168.111 130.089 165.414 117.528 163.661 105.842C162.692 99.4087 161.554 97.1708 158.637 91.4382C158.221 90.623 158.153 90.0709 154.285 88.8267C153.444 88.555 151.452 87.4212 150.42 87.5953C145.376 88.4488 140.238 86.538 135.189 87.3872C129.847 88.2875 120.891 85.5868 116.73 89.2386C111.103 94.1729 110.713 105.897 109.821 113.566C108.615 123.91 105.753 134.403 105.248 144.811C104.802 153.945 104.564 163.087 104.394 172.234C104.305 177.002 102.568 193.576 106.849 196.765C109.354 198.629 116.055 199.389 122.955 199.618C123.201 199.627 123.452 199.635 123.698 199.644C123.766 199.644 123.83 199.648 123.898 199.648C126.709 199.72 129.516 199.712 132.059 199.657C135.813 199.576 138.993 199.393 140.713 199.236C148.76 198.502 156.705 196.862 164.59 195.049C165.992 194.727 167.537 194.298 168.302 193.015C168.854 192.094 168.306 185.151 168.302 184.064Z" fill="#D3E4EA"/>
<path d="M151.575 60.2829C151.422 58.2786 151.091 56.3423 150.582 54.3975C150.577 54.3847 150.573 54.3762 150.569 54.3677C150.242 52.3932 149.919 50.4144 149.596 48.4356C149.507 47.8921 149.189 47.408 148.611 47.2976C146.416 46.8772 144.212 46.5587 141.995 46.3167C140.509 45.5311 138.611 45.1574 136.955 45.3145C135.766 45.1532 134.535 45.1999 133.507 45.3358C132.887 45.4164 132.203 45.5523 131.554 45.7604C130.407 45.7392 129.261 45.7901 128.114 45.9005C125.655 43.5947 119.961 44.2614 118.275 47.0937C117.931 47.6712 117.753 48.219 117.698 48.7371C115.464 49.2933 113.286 50.6352 112.611 52.9367C112.279 54.0747 112.42 55.3104 113.124 56.2743C113.519 56.8136 114.105 57.1066 114.7 57.3699C114.929 57.6672 115.209 57.9432 115.515 58.1979C115.77 58.6353 116.148 59.0175 116.691 59.3147C116.912 59.4379 117.133 59.4803 117.337 59.4634C117.49 59.5568 117.638 59.646 117.774 59.7266C118.764 60.3339 119.711 59.1916 119.498 58.2574V58.2531C119.626 57.9814 119.664 57.6671 119.592 57.3742C120.012 56.8773 120.398 56.3083 120.793 55.8837C121.256 55.6586 121.711 55.4123 122.207 55.1958C122.258 55.1746 122.305 55.1576 122.352 55.1363C122.428 55.1151 122.496 55.0896 122.556 55.0556C123.286 54.8009 123.987 54.7499 124.675 54.8348C124.742 54.8561 124.81 54.8773 124.874 54.8985C125.426 55.0599 125.982 55.2043 126.547 55.3317C126.891 55.4633 127.244 55.6077 127.596 55.7648C127.953 55.9219 128.326 55.8752 128.645 55.7181C131.953 56.2234 135.401 56.2446 138.755 56.0578C140.288 57.4124 143.065 57.0684 144.598 55.7733C144.607 55.7648 144.615 55.7563 144.624 55.7478C144.662 56.3211 144.535 56.9325 144.199 57.4888C144 57.82 144.008 58.4018 144.259 58.7075C144.942 59.5356 145.257 60.4485 145.206 61.5228C145.167 62.3849 146.119 62.7755 146.811 62.6184C147.032 62.5674 147.006 63.2893 146.925 64.0239C146.84 63.8371 146.645 63.7012 146.373 63.7819C144.845 64.2405 143.312 64.7246 141.762 65.1492C141.609 64.6397 141.291 64.2235 140.705 63.9942C139.864 63.663 138.772 63.7904 137.893 63.7904C136.089 63.7946 134.28 63.8201 132.475 63.7904C132.237 63.7861 132.093 63.9093 132.029 64.0664C131.774 64.0707 131.52 64.0707 131.261 64.0749C130.972 64.0834 130.73 64.283 130.73 64.5378C130.726 65.1535 130.717 65.7692 130.747 66.3849C130.416 66.3637 130.084 66.3382 129.774 66.334C129.065 66.317 128.36 66.3127 127.651 66.3212C127.634 65.9688 127.605 65.6291 127.579 65.3233C127.596 65.0431 127.63 64.7628 127.638 64.4826C127.643 64.2278 127.401 64.0154 127.125 64.0154H127.002C126.972 64.0112 126.942 63.9985 126.908 63.9942C125.29 63.9178 123.672 63.8244 122.055 63.7352C120.929 63.6715 119.418 63.319 118.352 63.68C116.819 64.198 117.044 66.007 117.235 67.4847C117.091 68.1259 117.061 68.7374 117.379 69.1196C117.634 69.4211 118.008 69.4593 118.377 69.523C119.57 69.731 120.993 69.5484 122.207 69.5527C123.396 69.5569 125.991 70.0792 126.985 69.2427C127.443 68.8563 127.609 68.1387 127.651 67.3573C127.677 67.3573 127.698 67.3616 127.723 67.3616C127.749 67.5144 127.851 67.6503 128.067 67.6885C128.989 67.8584 129.919 67.9094 130.853 67.8669C131.065 68.593 131.588 69.2215 132.543 69.5527C133.808 69.9943 135.524 69.6546 136.87 69.7141C137.63 69.748 138.352 69.7268 138.989 69.489C139.537 69.4253 140.08 69.3489 140.624 69.2554C140.76 69.23 140.866 69.1365 140.934 69.0261C141.095 68.9964 141.24 68.8988 141.299 68.7247C141.533 68.0198 141.868 66.9624 141.868 66.007C143.443 65.5229 145.044 65.0855 146.632 64.6439C146.739 64.6142 146.807 64.559 146.866 64.4953C146.794 64.9964 146.717 65.4252 146.692 65.5229C146.395 66.6609 145.881 67.6376 145.252 68.6185C144.993 69.0219 145.112 69.8032 145.52 70.0877C145.809 70.2873 146.085 70.4402 146.348 70.5463C145.97 72.3043 145.07 73.9774 144.136 75.5783C143.099 77.3532 140.479 78.9159 138.874 80.3214C137.269 81.7227 135.078 82.7206 132.832 82.5762C132.539 82.5593 132.237 82.5168 131.983 82.3894C131.43 82.1176 131.214 81.5232 131.053 80.9839C130.891 80.4446 130.7 79.8501 130.174 79.5444C129.647 79.2386 128.717 79.5231 128.785 80.0794C128.827 80.4403 129.252 80.7036 129.256 81.0645C129.261 81.4807 128.67 81.7312 128.22 81.6166C127.77 81.5019 127.447 81.158 127.159 80.8352C126.458 80.0539 125.757 79.2768 125.057 78.4955C124.759 78.1643 124.424 77.8925 123.995 78.0751C124.564 79.3066 125.715 80.4828 126.543 81.5996C127.227 82.5168 127.931 83.4595 128.955 84.0795C130.178 84.8183 131.711 85.0179 133.193 85.0434C134.989 85.0731 136.883 84.848 138.331 83.9011C139.367 83.2217 141.906 81.175 142.556 80.1898C144.739 76.8776 146.127 74.5889 147.286 70.8903C147.299 70.8478 147.312 70.8096 147.325 70.7671C149.227 70.8096 150.373 68.4444 150.849 66.4274C151.24 64.7713 151.414 62.9751 151.091 61.3657C151.405 61.1619 151.618 60.8052 151.575 60.2829ZM126.284 67.6885C126.25 67.7692 126.212 67.8414 126.169 67.9136C124.636 68.0835 123.027 68.2788 121.503 68.2066C120.738 68.1684 120.144 68.024 119.715 67.697C119.715 67.6885 119.719 67.6843 119.719 67.6758C119.728 66.7713 119.736 65.8711 119.745 64.9666C120.755 64.9624 121.77 64.9624 122.781 64.9581C123.978 64.9921 125.171 65.0303 126.369 65.0686C126.42 65.5144 126.475 66.0282 126.471 66.5208C126.428 66.9115 126.356 67.2979 126.284 67.6885ZM139.919 66.7713C139.715 67.6248 139.439 68.2363 138.645 68.5888C137.29 68.7416 135.927 68.7841 134.56 68.6694C133.422 68.576 133.036 68.576 132.934 67.5144C132.917 67.3361 132.908 67.1535 132.904 66.9667C132.968 66.8308 132.963 66.6694 132.895 66.5378C132.895 66.0877 132.917 65.6291 132.951 65.1874C135.172 65.179 137.392 65.2002 139.613 65.2087C139.775 65.3148 139.885 65.4507 139.949 65.6078C139.953 65.9348 139.953 66.2575 139.957 66.5845C139.944 66.6439 139.936 66.7034 139.919 66.7713Z" fill="#333333"/>
<path d="M170.523 156.739C170.404 149.681 170.157 142.628 169.771 135.579C169.266 126.373 168.964 116.916 167.444 107.812C166.484 102.071 164.497 95.9819 159.661 92.606C158.455 89.8671 156.705 87.5486 154.051 86.2535C153.236 84.9244 151.656 84.7503 150.408 85.3745C149.423 84.814 148.115 84.7418 147.045 85.659C142.747 89.3406 140.344 94.4914 138.845 99.8503C137.214 105.676 136.255 111.961 135.996 117.995C135.575 127.694 138.628 137.367 144.221 145.244C144.272 146.378 144.318 147.511 144.344 148.645C144.875 169.648 138.696 189.86 132.548 209.708C131.855 211.937 134.42 213.763 136.399 213.147C137.125 212.922 137.86 212.714 138.59 212.506C138.853 212.587 139.134 212.65 139.444 212.672C140.047 212.71 140.65 212.735 141.257 212.752C142.272 213.44 143.618 213.563 144.603 212.748C149.563 212.591 154.476 211.759 159.21 210.277L163.21 209.793C163.661 209.737 164.106 209.589 164.51 209.364C165.932 209.546 167.512 208.812 167.928 207.105C171.988 190.378 172.332 173.512 170.523 156.739Z" fill="#E0C74E"/>
<path d="M118.87 86.245C111.668 95.2473 108.016 106.012 106.199 117.171C101.655 135.006 101.328 153.996 102.084 172.51C102.076 172.629 102.067 172.752 102.071 172.883L102.585 188.068C102.742 192.748 102.581 197.584 103.583 202.183C105.107 209.177 112.59 215.886 119.762 211.342C120.836 210.663 121.171 209.398 120.874 208.221C113.388 178.378 112.101 147.044 117.108 116.687C118.522 108.118 120.441 99.6465 122.819 91.2982C122.972 90.7589 122.963 90.2875 122.844 89.8756C124.993 87.1749 121.031 83.5358 118.87 86.245Z" fill="#E0C74E"/>
<path d="M117.821 110.547C116.352 108.139 114.623 105.974 112.891 103.757C111.345 101.782 111.184 99.0944 109.069 97.5403C106.993 96.0116 104.313 95.9988 101.855 96.2281C101.392 96.2706 100.976 96.432 100.632 96.6783C100.398 96.7929 100.182 96.9373 99.9948 97.1156C99.2474 97.2812 98.4916 97.5275 97.7272 97.8333C96.1985 98.449 95.7442 99.9564 96.4618 101.379C99.7952 108.008 103.264 114.611 108.619 119.859C109.333 120.555 110.258 120.598 111.052 120.267C111.494 120.437 111.982 120.53 112.53 120.534C113.923 120.534 115.354 120.271 116.725 120.042C118.135 119.808 119.443 119.545 120.173 118.169C121.473 115.727 119.048 112.555 117.821 110.547Z" fill="#909294"/>
<path d="M121.689 115.553C117.388 109.337 113.146 103.082 108.878 96.844C108.313 96.0202 107.375 96.0414 106.729 96.4745C104.487 96.3726 102.245 96.3471 100.003 96.4321C98.7929 96.4788 97.4681 96.4406 96.8523 97.6423C96.6655 98.0075 96.9585 98.3811 97.3364 98.3854C100.164 98.4236 102.988 98.4576 105.816 98.4958C105.944 98.7166 106.199 98.7463 106.415 98.6487C110.649 104.836 114.908 111.006 119.107 117.214C120.216 118.849 122.815 117.18 121.689 115.553Z" fill="#606060"/>
<path d="M145.108 137.643C141.762 135.354 138.322 133.193 134.789 131.201C132.186 128.382 129.171 125.953 125.813 123.982C124.734 123.35 123.732 123.566 123.027 124.186C122.861 124.212 122.7 124.25 122.543 124.305C122.016 123.957 121.494 123.685 120.997 123.545C120.993 123.545 120.993 123.549 120.993 123.549C120.662 123.706 120.343 123.872 120.033 124.063C119.991 124.088 119.778 124.233 119.617 124.343C119.46 124.471 119.142 124.721 119.146 124.721C119.006 124.84 118.865 124.963 118.725 125.086C118.683 126.352 119.426 128.093 120.203 129.511L122.284 133.299C122.36 133.464 122.441 133.63 122.547 133.796C122.577 133.842 122.607 133.889 122.636 133.936L125.948 139.97C126.169 140.05 126.39 140.161 126.615 140.297C127.328 141.384 128.067 142.454 128.84 143.486C130.012 146.862 132.628 149.639 135.944 151.528C140.174 153.94 147.894 157.444 151.01 151.724C154.051 146.148 149.473 140.628 145.108 137.643Z" fill="#E0C74E"/>
<path d="M159.006 100.776C158.378 99.5656 156.836 99.1028 155.618 99.5232C154.654 99.4892 153.605 99.6888 152.471 100.194C145.974 103.06 144.497 111.26 143.112 117.417C141.15 126.144 139.86 135.116 141.24 144.033C141.401 145.07 142.012 145.736 142.768 146.059C142.717 147.048 142.705 148.038 142.726 149.036C142.764 150.675 143.945 151.401 145.189 151.358C145.66 151.575 146.093 151.677 146.497 151.69C147.01 152.114 147.673 152.348 148.424 152.259C156.476 151.29 155.894 140.908 157.176 134.959C158.021 131.044 159.202 127.273 160.624 123.532C161.958 120.025 163.342 116.436 163.554 112.649C163.762 108.848 162.229 103.256 159.006 100.776Z" fill="#E0C74E"/>
<path d="M118.954 125.787C119.205 125.732 119.451 125.643 119.693 125.515C120.789 124.929 121.235 123.8 121.434 122.64C121.723 120.963 121.553 119.235 121.443 117.528C120.759 116.42 119.957 115.417 118.836 114.713C118.632 114.955 118.432 115.201 118.228 115.443L118.827 116.989C117.876 115.944 116.768 115.023 115.566 114.271C114.398 113.541 112.78 112.997 111.91 113.821C111.052 114.636 111.566 116.156 112.211 117.316C113.948 120.445 116.334 123.205 118.954 125.787Z" fill="#D0C5C2"/>
</g>
<path opacity="0.22" d="M321.871 305.488C326.151 304.266 327.54 302.656 324.257 300.541C321.616 298.843 313.31 299.442 309.578 299.238C292.091 298.299 274.579 297.442 256.982 296.945C221.589 295.938 185.979 296.104 150.471 297.45C145.201 297.65 107.171 297.871 112.64 304.193C115.422 307.408 130.704 305.905 136.263 306.062C148.416 306.397 160.565 306.737 172.718 307.072C197.72 307.765 223.908 308.495 245.636 309.098C251.042 309.242 306.091 309.994 321.871 305.488Z" fill="url(#paint0_linear_805_1126)"/>
<path d="M313.378 178.31C307.085 173.881 300.13 170.645 293.293 167.172C287.335 164.148 281.964 160.488 275.794 157.584C261.743 150.968 247.615 143.779 233.98 136.777C233.063 136.305 232.12 135.953 231.16 135.706C233.059 136.195 234.451 107.6 234.29 105.035C233.657 94.9032 231.381 84.8861 227.594 75.4719C223.708 65.82 218.23 56.8135 211.428 48.9365C208.031 45.0044 204.188 41.8153 200.391 38.3673C196.277 34.6305 193.045 30.3247 187.72 28.1463C169.516 20.694 151.945 15.0039 131.949 16.6727C112.747 18.2778 94.1349 25.6962 79.2897 38.0106C65.8033 49.1998 58.1259 62.5545 51.3826 78.3934C50.7584 79.8584 50.1342 81.3234 49.51 82.7926C42.1766 100.012 44.0789 122.882 49.837 140.416C55.9347 158.989 67.799 175.457 83.5488 187.053C92.0584 193.321 101.477 200.701 112.373 201.899C122.751 203.041 132.314 205.877 142.955 205.512C163.474 204.807 183.555 197.312 199.495 184.374C204.527 180.289 209.135 175.686 213.22 170.658C213.98 171.295 214.816 171.856 215.733 172.327C218.625 172.327 224.838 176.773 227.496 178.178C231.984 180.556 236.226 183.495 240.651 186.009C251.649 192.255 263.339 196.769 274.452 202.472C279.552 205.088 284.647 207.708 289.747 210.323C291.187 211.062 292.694 211.737 294.096 212.553C299.37 215.623 305.026 216.077 311.17 216.154C313.179 216.179 315.255 216.107 317.068 215.241C318.737 214.442 320.032 213.049 321.26 211.665C324.139 208.429 327.005 204.867 327.727 200.595C328.508 195.962 326.563 191.202 323.582 187.571C320.606 183.97 317.136 180.956 313.378 178.31ZM207.275 145.528C187.652 183.745 140.768 198.82 102.551 179.198C64.334 159.575 49.2595 112.691 68.8819 74.474C88.5043 36.2569 135.388 21.1823 173.605 40.8047C211.823 60.4271 226.897 107.311 207.275 145.528Z" fill="#3951A4"/>
<path opacity="0.18" d="M193.081 165.005C223.457 134.628 223.457 85.3781 193.081 55.0016C162.704 24.6251 113.454 24.6251 83.0777 55.0016C52.7012 85.3782 52.7012 134.628 83.0777 165.005C113.454 195.381 162.704 195.381 193.081 165.005Z" fill="#B4FFFF"/>
<g opacity="0.9">
<path d="M169.219 156.977C168.617 157.724 167.98 158.442 167.296 159.117C166.969 159.439 166.625 159.745 166.285 160.059C166.056 160.229 165.831 160.416 165.602 160.586C164.837 161.155 164.039 161.681 163.219 162.17C162.807 162.416 162.391 162.65 161.967 162.875C161.754 162.989 161.542 163.1 161.326 163.206C161.283 163.227 161.241 163.253 161.198 163.278C161.202 163.274 161.202 163.274 161.207 163.27C161.202 163.274 161.198 163.278 161.194 163.278C161.117 163.325 161.041 163.376 160.973 163.427C160.272 163.851 159.241 164.093 158.514 164.348C157.483 164.718 156.429 165.04 155.372 165.321C154.901 165.448 154.425 165.563 153.945 165.673C153.678 165.732 152.718 165.779 152.519 165.97C152.34 166 152.166 166.03 151.988 166.059C151.444 166.144 150.901 166.221 150.353 166.289C148.383 166.531 146.404 166.658 144.421 166.684C143.521 166.696 142.62 166.684 141.72 166.654C141.27 166.637 140.82 166.616 140.374 166.59C140.276 166.586 140.085 166.595 139.966 166.603C140.017 166.599 140.09 166.594 140.196 166.586C141.007 166.518 139.886 166.556 139.682 166.539C135.937 166.191 132.225 165.486 128.603 164.454C127.737 164.208 126.879 163.945 126.026 163.66C125.877 163.609 125.728 163.558 125.58 163.512C125.104 163.321 124.62 163.159 124.144 162.977C122.361 162.28 120.607 161.503 118.892 160.658C117.223 159.834 115.592 158.938 113.996 157.979C113.176 157.482 112.365 156.972 111.563 156.441C111.461 156.374 111.363 156.31 111.265 156.242C111.274 156.25 111.282 156.263 111.291 156.272C111.282 156.259 111.27 156.246 111.257 156.233C111.172 156.174 111.087 156.119 111.002 156.064C110.853 155.962 110.781 155.881 110.773 155.843C110.522 155.681 110.25 155.528 110.055 155.384C107.01 153.151 104.153 150.658 101.528 147.94C100.904 147.291 100.293 146.632 99.694 145.957C99.4137 145.639 99.1335 145.316 98.8574 144.993C98.6961 144.794 98.5305 144.594 98.3691 144.39C97.1759 142.896 96.0506 141.35 95.0018 139.758C93.8298 137.974 92.7469 136.131 91.766 134.237C91.5325 133.787 91.3074 133.337 91.0866 132.883C91.0017 132.709 90.7384 132.021 91.0017 132.713C91.2905 133.464 90.9295 132.547 90.8573 132.386C90.3987 131.358 89.9698 130.318 89.5749 129.265C88.7893 127.176 88.1014 125.035 87.6131 122.857C87.6046 122.827 87.5961 122.781 87.5834 122.721C87.5537 122.556 87.473 122.122 87.4602 122.033C87.3668 121.392 87.2989 120.751 87.2607 120.105C87.2522 119.974 87.1885 119.286 87.1757 118.768C87.1842 118.725 87.2012 118.602 87.2394 118.347C87.2946 117.965 87.3498 117.583 87.4178 117.201C87.9019 114.572 86.2246 111.6 83.4517 111.15C80.768 110.713 77.9187 112.296 77.4006 115.116C76.4452 120.318 77.4983 125.545 79.1586 130.488C80.5302 134.569 82.3561 138.53 84.5133 142.254C88.6874 149.469 94.3478 155.953 100.845 161.168C114.14 171.83 131.24 178.021 148.374 176.765C158.85 175.996 169.95 172.344 176.753 163.911C178.426 161.834 178.659 158.535 176.447 156.684C174.438 154.985 171.016 154.751 169.219 156.977ZM87.2394 118.169C87.2479 118.165 87.1842 118.632 87.1715 118.751C87.1672 118.441 87.18 118.199 87.2394 118.169Z" fill="white"/>
</g>
<path d="M111.261 156.233C110.938 155.843 110.747 155.762 110.764 155.834C110.951 155.957 111.129 156.089 111.252 156.229C111.256 156.229 111.256 156.233 111.261 156.233Z" fill="#456184"/>
<g opacity="0.9">
<path d="M185.792 147.303C183.27 146.148 180.216 146.968 178.904 149.516C177.681 151.894 178.603 155.248 181.117 156.403C183.639 157.558 186.692 156.739 188.004 154.191C189.227 151.809 188.306 148.454 185.792 147.303Z" fill="white"/>
</g>
<path d="M217.826 35.0213C214.004 33.6327 211.851 39.5818 215.686 40.9746C233.44 47.4249 245.873 65.4803 245.338 84.4063C245.224 88.4573 251.525 89.0264 251.64 84.9414C252.255 63.1788 238.332 42.4694 217.826 35.0213Z" fill="#3951A4"/>
<path d="M229.079 19.4711C225.432 17.6918 223.313 23.6537 226.939 25.4245C248.833 36.1168 263.475 59.8284 263.343 84.1685C263.322 88.211 269.624 88.7885 269.645 84.7035C269.798 57.2763 253.708 31.4967 229.079 19.4711Z" fill="#3951A4"/>
<path d="M16.4351 116.084C13.7939 130.369 19.9766 145.316 31.671 153.839C34.9619 156.238 38.6053 151.066 35.3144 148.666C25.2888 141.359 20.4946 128.764 22.7409 116.619C23.4756 112.623 17.1697 112.105 16.4351 116.084Z" fill="#3951A4"/>
<path d="M0.0355002 126.169C-0.461323 137.745 4.2776 148.577 12.9317 156.225C15.9763 158.917 19.5942 153.724 16.575 151.053C9.67896 144.955 5.94217 135.864 6.33708 126.7C6.51118 122.649 0.209601 122.084 0.0355002 126.169Z" fill="#3951A4"/>
<path d="M261.989 150.484C261.764 150.475 261.556 150.492 261.365 150.535C256.587 151.583 254.987 162.221 253.11 165.877C249.785 172.348 246.379 178.773 242.931 185.181C241.267 188.272 242.965 188.472 245.398 189.656C247.25 190.561 249.105 191.465 250.957 192.37C256.345 194.998 261.73 197.627 267.118 200.255C279.424 206.26 291.73 212.26 304.036 218.264C310.253 221.296 316.686 225.449 323.238 227.631C328.121 229.258 334.126 227.542 338.559 224.765C347.086 219.423 351.315 204.795 344.754 196.412C342.466 193.486 339.221 191.495 336.032 189.588C319.395 179.639 302.38 170.323 285.034 161.66C280.813 159.554 276.575 157.486 272.32 155.456C270.091 154.395 264.851 150.569 261.989 150.484Z" fill="#343540"/>
<defs>
<linearGradient id="paint0_linear_805_1126" x1="112.17" y1="302.195" x2="324.485" y2="320.853" gradientUnits="userSpaceOnUse">
<stop/>
<stop offset="1"/>
</linearGradient>
</defs>
</svg>
