<svg width="114" height="114" viewBox="0 0 114 114" fill="none" xmlns="http://www.w3.org/2000/svg">
<path d="M24.136 0H29.2571V5.07656H33.9774V0H39.0985V15.3633H33.9774V10.2422H29.3016V15.3633H24.136M45.8672 5.12109H41.3473V0H55.5305V5.12109H50.9883V15.3633H45.8672M57.7793 0H63.1454L66.4407 5.41055L69.736 0H75.102V15.3633H69.9809V7.74844L66.3961 13.2703L62.8114 7.74844V15.3633H57.7793M77.6403 0H82.7614V10.2867H90.02V15.3633H77.6403" fill="white"/>
<path d="M23.9578 104.871L16.6101 22.3992H97.3898L90.0421 104.827L56.9332 114" fill="#E44D26"/>
<path d="M57 106.986V29.168H90.0199L83.7188 99.5273" fill="#F16529"/>
<path d="M31.6172 39.2544H57V49.363H42.7055L43.6406 59.7165H57V69.8028H34.3781M34.8234 74.8794H44.9766L45.6891 82.9618L57 85.9899V96.5438L36.2484 90.7548" fill="#EBEBEB"/>
<path d="M82.2937 39.2544H56.9554V49.363H81.3586M80.4457 59.7165H56.9554V69.8251H69.4242L68.2441 82.9618L56.9554 85.9899V96.4993L77.6625 90.7548" fill="white"/>
</svg>
