<svg width="27" height="27" viewBox="0 0 27 27" fill="none" xmlns="http://www.w3.org/2000/svg">
<path d="M23.7222 14.7778V20.9111C23.7222 22.3424 23.7222 23.058 23.4437 23.6046C23.1987 24.0855 22.8077 24.4765 22.3269 24.7215C21.7802 25 21.0646 25 19.6333 25H7.36667C5.93542 25 5.2198 25 4.67314 24.7215C4.19228 24.4765 3.80133 24.0855 3.55632 23.6046C3.27778 23.058 3.27778 22.3424 3.27778 20.9111V14.7778M9.66667 10.9444H17.3333M10.0317 16.0556H16.9683C19.6931 16.0556 21.0555 16.0556 22.1065 15.5494C23.1497 15.047 23.9915 14.2053 24.4938 13.1621C25 12.111 25 10.7486 25 8.02381C25 5.9802 25 4.9584 24.6204 4.17011C24.2436 3.3877 23.6123 2.75641 22.8299 2.37962C22.0416 2 21.0198 2 18.9762 2H8.02381C5.9802 2 4.9584 2 4.17011 2.37962C3.3877 2.75641 2.75641 3.3877 2.37962 4.17011C2 4.9584 2 5.9802 2 8.02381C2 10.7486 2 12.111 2.50616 13.1621C3.00855 14.2053 3.85027 15.047 4.89348 15.5494C5.94453 16.0556 7.30694 16.0556 10.0317 16.0556Z" stroke="#ECECF1" stroke-width="2.55556" stroke-linecap="round" stroke-linejoin="round"/>
</svg>
