<svg width="32" height="31" viewBox="0 0 32 31" fill="none" xmlns="http://www.w3.org/2000/svg">
<path d="M28.453 0C29.3665 0 30.2426 0.362896 30.8886 1.00885C31.5346 1.65481 31.8975 2.53092 31.8975 3.44444V27.5556C31.8975 28.4691 31.5346 29.3452 30.8886 29.9911C30.2426 30.6371 29.3665 31 28.453 31H4.34191C3.42838 31 2.55227 30.6371 1.90632 29.9911C1.26036 29.3452 0.897461 28.4691 0.897461 27.5556V3.44444C0.897461 2.53092 1.26036 1.65481 1.90632 1.00885C2.55227 0.362896 3.42838 0 4.34191 0H28.453ZM27.5919 26.6944V17.5667C27.5919 16.0776 27.0004 14.6496 25.9475 13.5967C24.8946 12.5437 23.4665 11.9522 21.9775 11.9522C20.5136 11.9522 18.8086 12.8478 17.9819 14.1911V12.2794H13.1769V26.6944H17.9819V18.2039C17.9819 16.8778 19.0497 15.7928 20.3758 15.7928C21.0153 15.7928 21.6285 16.0468 22.0807 16.499C22.5329 16.9511 22.7869 17.5644 22.7869 18.2039V26.6944H27.5919ZM7.57968 9.57556C8.34704 9.57556 9.08297 9.27072 9.62558 8.72812C10.1682 8.18551 10.473 7.44958 10.473 6.68222C10.473 5.08056 9.18135 3.77167 7.57968 3.77167C6.80776 3.77167 6.06744 4.07831 5.52161 4.62415C4.97577 5.16998 4.66913 5.9103 4.66913 6.68222C4.66913 8.28389 5.97802 9.57556 7.57968 9.57556ZM9.97357 26.6944V12.2794H5.20302V26.6944H9.97357Z" fill="#FBFBFB"/>
</svg>
