<svg width="100" height="110" viewBox="0 0 100 110" fill="none" xmlns="http://www.w3.org/2000/svg">
<g clip-path="url(#clip0_1496_2464)">
<path d="M44.7366 0.000750884C41.0028 0.0181476 37.4371 0.33746 34.2996 0.894151C25.057 2.53148 23.3789 5.95854 23.3789 12.2786V20.6255H45.2203V23.4078H23.3789H15.1821C8.83435 23.4078 3.27612 27.2336 1.53758 34.5115C-0.46781 42.8537 -0.55676 48.0594 1.53758 56.7699C3.09014 63.2538 6.79786 67.8736 13.1456 67.8736H20.6551V57.8675C20.6551 50.6387 26.8926 44.2623 34.2996 44.2623H56.1155C62.1882 44.2623 67.0361 39.2485 67.0361 33.1331V12.2786C67.0361 6.34331 62.0427 1.88473 56.1155 0.894151C52.3635 0.267872 48.4704 -0.0166461 44.7366 0.000750884ZM32.925 6.71401C35.181 6.71401 37.0234 8.5916 37.0234 10.9002C37.0234 13.2007 35.181 15.0609 32.925 15.0609C30.6608 15.0609 28.8265 13.2007 28.8265 10.9002C28.8265 8.5916 30.6608 6.71401 32.925 6.71401Z" fill="url(#paint0_linear_1496_2464)"/>
<path d="M69.7599 23.4077V33.133C69.7599 40.6729 63.385 47.019 56.1155 47.019H34.2996C28.3238 47.019 23.3789 52.1474 23.3789 58.1482V79.0027C23.3789 84.938 28.526 88.4291 34.2996 90.1319C41.2133 92.1704 47.8432 92.5388 56.1155 90.1319C61.6141 88.5356 67.0361 85.3228 67.0361 79.0027V70.6558H45.2202V67.8735H67.0361H77.9568C84.3045 67.8735 86.6699 63.4337 88.8775 56.7698C91.1578 49.9094 91.0608 43.312 88.8775 34.5114C87.3087 28.1749 84.3126 23.4077 77.9568 23.4077H69.7599ZM57.4901 76.2204C59.7542 76.2204 61.5885 78.0807 61.5885 80.3811C61.5885 82.6898 59.7542 84.5673 57.4901 84.5673C55.234 84.5673 53.3917 82.6898 53.3917 80.3811C53.3917 78.0807 55.234 76.2204 57.4901 76.2204Z" fill="url(#paint1_linear_1496_2464)"/>
<path opacity="0.44382" d="M45.4681 110C61.633 110 74.7373 107.452 74.7373 104.309C74.7373 101.166 61.633 98.6179 45.4681 98.6179C29.3031 98.6179 16.1989 101.166 16.1989 104.309C16.1989 107.452 29.3031 110 45.4681 110Z" fill="url(#paint2_radial_1496_2464)"/>
</g>
<defs>
<linearGradient id="paint0_linear_1496_2464" x1="-2.71981e-07" y1="-2.36908e-07" x2="50.4794" y2="42.8981" gradientUnits="userSpaceOnUse">
<stop stop-color="#5A9FD4"/>
<stop offset="1" stop-color="#306998"/>
</linearGradient>
<linearGradient id="paint1_linear_1496_2464" x1="56.9652" y1="79.6794" x2="38.8312" y2="54.3375" gradientUnits="userSpaceOnUse">
<stop stop-color="#FFD43B"/>
<stop offset="1" stop-color="#FFE873"/>
</linearGradient>
<radialGradient id="paint2_radial_1496_2464" cx="0" cy="0" r="1" gradientUnits="userSpaceOnUse" gradientTransform="translate(45.4681 104.309) rotate(-90) scale(5.69107 24.9464)">
<stop stop-color="#B8B8B8" stop-opacity="0.498039"/>
<stop offset="1" stop-color="#7F7F7F" stop-opacity="0"/>
</radialGradient>
<clipPath id="clip0_1496_2464">
<rect width="100" height="110" fill="white"/>
</clipPath>
</defs>
</svg>
