<svg width="211" height="218" viewBox="0 0 211 218" fill="none" xmlns="http://www.w3.org/2000/svg">
<path d="M103.73 0.00174141C95.0724 0.0420869 86.8046 0.782619 79.5298 2.07367C58.0992 5.87087 54.2083 13.8187 54.2083 28.4759V47.8337H104.851V54.2862H54.2083H35.2023C20.484 54.2862 7.59628 63.1588 3.56515 80.0374C-1.0847 99.3841 -1.29095 111.457 3.56515 131.658C7.16505 146.695 15.7621 157.409 30.4804 157.409H47.8926V134.203C47.8926 117.439 62.3554 102.651 79.5298 102.651H130.114C144.195 102.651 155.435 91.0232 155.435 76.8407V28.4759C155.435 14.7111 143.857 4.37097 130.114 2.07367C121.414 0.621236 112.387 -0.0386047 103.73 0.00174141ZM76.3425 15.5708C81.5736 15.5708 85.8455 19.9252 85.8455 25.2793C85.8455 30.6143 81.5736 34.9285 76.3425 34.9285C71.0927 34.9285 66.8395 30.6143 66.8395 25.2793C66.8395 19.9252 71.0927 15.5708 76.3425 15.5708Z" fill="url(#paint0_linear_1554_2097)"/>
<path d="M161.751 54.2863V76.8407C161.751 94.3268 146.97 109.044 130.114 109.044H79.5298C65.674 109.044 54.2083 120.938 54.2083 134.855V183.219C54.2083 196.984 66.1427 205.081 79.5298 209.03C95.5606 213.757 110.933 214.612 130.114 209.03C142.863 205.327 155.435 197.877 155.435 183.219V163.862H104.851V157.409H155.435H180.757C195.475 157.409 200.96 147.113 206.079 131.658C211.366 115.748 211.141 100.447 206.079 80.0374C202.441 65.3422 195.494 54.2863 180.757 54.2863H161.751ZM133.301 176.767C138.551 176.767 142.804 181.081 142.804 186.416C142.804 191.77 138.551 196.125 133.301 196.125C128.07 196.125 123.798 191.77 123.798 186.416C123.798 181.081 128.07 176.767 133.301 176.767Z" fill="url(#paint1_linear_1554_2097)"/>
<defs>
<linearGradient id="paint0_linear_1554_2097" x1="-6.30637e-07" y1="-5.49425e-07" x2="117.065" y2="99.4639" gradientUnits="userSpaceOnUse">
<stop stop-color="#5A9FD4"/>
<stop offset="1" stop-color="#306998"/>
</linearGradient>
<linearGradient id="paint1_linear_1554_2097" x1="132.084" y1="184.789" x2="90.0259" y2="126.025" gradientUnits="userSpaceOnUse">
<stop stop-color="#FFD43B"/>
<stop offset="1" stop-color="#FFE873"/>
</linearGradient>
</defs>
</svg>
